<svg width="225" height="225" viewBox="0 0 225 225" fill="none" xmlns="http://www.w3.org/2000/svg">
<path d="M195.935 224.015H28.0146C24.3089 224.137 20.6181 223.489 17.1755 222.112C13.733 220.735 10.6136 218.659 8.01465 216.015C5.39032 213.434 3.32563 210.341 1.94926 206.927C0.572884 203.514 -0.0856695 199.854 0.0146458 196.175V28.0146C-0.107912 24.3089 0.539801 20.6181 1.91683 17.1755C3.29385 13.733 5.37022 10.6136 8.01465 8.01465C10.6136 5.37022 13.733 3.29385 17.1755 1.91683C20.6181 0.539801 24.3089 -0.107912 28.0146 0.0146458H196.015C199.72 -0.107912 203.411 0.539801 206.854 1.91683C210.296 3.29385 213.416 5.37022 216.015 8.01465C218.659 10.6136 220.735 13.733 222.112 17.1755C223.489 20.6181 224.137 24.3089 224.015 28.0146V196.015C223.972 203.442 220.998 210.551 215.739 215.795C210.48 221.039 203.362 223.994 195.935 224.015ZM174.975 168.815C176.615 168.787 178.206 168.257 179.535 167.295C181.199 166.5 182.606 165.254 183.597 163.698C184.587 162.142 185.12 160.339 185.135 158.495V63.4546C185.196 61.9609 184.806 60.4833 184.015 59.2146C183.181 57.5052 181.9 56.0528 180.309 55.0108C178.718 53.9687 176.875 53.3758 174.975 53.2946H47.4546C46.6035 53.3719 45.7819 53.6458 45.0546 54.0946C43.1198 54.7402 41.4263 55.9576 40.1979 57.5859C38.9695 59.2142 38.264 61.1769 38.1746 63.2146V158.495C38.1869 160.063 38.6598 161.593 39.5346 162.895C40.3336 164.614 41.5943 166.078 43.1763 167.123C44.7583 168.169 46.5995 168.754 48.4946 168.815H174.975ZM164.095 147.535H59.2946V88.0146L112.015 129.695L164.095 88.0146V147.535ZM112.015 102.495C88.8946 84.2547 77.0547 74.8146 76.4947 74.3346H147.215L112.015 102.495Z" fill="#F5F5F5"/>
</svg>
