<svg width="360" height="250" viewBox="0 0 360 250" fill="none" xmlns="http://www.w3.org/2000/svg">
    <path d="M179.997 5.38818C82.4493 5.38818 3.35156 55.9718 3.35156 118.385C3.35156 180.798 82.4493 236.281 179.997 236.281C277.545 236.281 356.643 180.798 356.643 118.385C356.643 56.0159 277.589 5.38818 179.997 5.38818Z" fill="#00B1EA"/>
    <path d="M122.529 83.4667C122.441 83.6433 120.719 85.4087 121.823 86.8654C124.56 90.3524 132.99 92.3387 141.51 90.4407C146.586 89.2931 153.118 84.1288 159.386 79.0968C166.228 73.6678 173.025 68.2386 179.822 66.0758C187.061 63.7806 191.652 64.7516 194.742 65.6785C198.096 66.6938 202.024 68.9007 208.336 73.6236C220.165 82.5397 267.792 124.075 276.046 131.27C282.667 128.268 314.226 115.512 354.261 106.684C350.774 85.3646 337.929 65.0165 318.243 49.038C290.789 60.5583 255.036 67.444 222.24 51.4657C222.064 51.4215 204.32 42.9909 186.84 43.4323C160.843 44.0503 149.542 55.3057 137.626 67.2234L122.529 83.4667Z" fill="white"/>
    <path d="M274.098 135.818C273.524 135.333 218.129 86.8239 205.55 77.3781C198.267 71.9489 194.25 70.5365 190.012 70.0069C187.806 69.742 184.76 70.1392 182.597 70.713C176.771 72.3021 169.134 77.4223 162.337 82.8073C155.318 88.4129 148.697 93.6655 142.562 95.0339C134.706 96.7995 125.127 94.7249 120.757 91.7675C118.993 90.5757 117.756 89.2075 117.138 87.795C115.505 84.0432 118.507 81.0417 118.991 80.5562L134.309 64.0039C136.074 62.2383 137.883 60.4727 139.693 58.7072C134.75 59.3693 130.204 60.6052 125.745 61.8411C120.184 63.3859 114.887 64.8867 109.458 64.8867C107.207 64.8867 95.1568 62.9004 92.8616 62.2825C79.0018 58.4865 63.3324 54.8229 45.1911 46.3481C23.4304 62.5473 9.26159 82.41 5.06836 104.7C8.20225 105.539 16.3681 107.393 18.4869 107.878C67.7022 118.825 83.0186 130.08 85.7993 132.464C88.8008 129.11 93.1704 126.991 97.9816 126.991C103.411 126.991 108.354 129.727 111.312 133.965C114.136 131.758 118.021 129.815 123.053 129.815C125.348 129.815 127.687 130.257 130.071 131.051C135.633 132.95 138.501 136.657 139.958 140.012C141.812 139.173 144.107 138.555 146.8 138.555C149.448 138.555 152.229 139.173 154.965 140.365C164.059 144.249 165.47 153.165 164.632 159.874C165.295 159.786 165.912 159.786 166.574 159.786C177.344 159.786 186.084 168.526 186.084 179.296C186.084 182.606 185.245 185.74 183.744 188.521C186.658 190.154 194.118 193.906 200.693 193.068C205.903 192.406 207.932 190.64 208.639 189.624C209.124 188.918 209.654 188.123 209.169 187.549L195.264 172.145C195.264 172.145 192.97 169.982 193.72 169.144C194.514 168.305 195.927 169.497 196.898 170.335C203.96 176.25 212.567 185.122 212.567 185.122C212.699 185.211 213.273 186.358 216.496 186.932C219.232 187.417 224.087 187.153 227.487 184.372C228.325 183.665 229.163 182.783 229.914 181.9C229.87 181.944 229.825 181.988 229.737 182.032C233.313 177.486 229.34 172.896 229.34 172.896L213.141 154.71C213.141 154.71 210.802 152.547 211.597 151.709C212.302 150.959 213.803 152.106 214.819 152.944C219.939 157.226 227.222 164.509 234.152 171.306C235.519 172.322 241.611 176.073 249.689 170.777C254.588 167.555 255.603 163.583 255.427 160.625C255.074 156.697 251.984 153.871 251.984 153.871L229.826 131.625C229.826 131.625 227.487 129.639 228.325 128.624C228.988 127.785 230.532 128.976 231.503 129.815C238.565 135.73 257.634 153.209 257.634 153.209C257.899 153.386 264.519 158.108 272.641 152.9C275.555 151.047 277.408 148.222 277.584 144.956C278.114 139.173 274.098 135.818 274.098 135.818Z" fill="white"/>
    <path d="M166.72 164.022C163.278 163.978 159.525 166.009 159.04 165.744C158.775 165.567 159.26 164.199 159.569 163.404C159.923 162.609 164.425 149.014 153.39 144.291C144.96 140.672 139.796 144.733 138.03 146.587C137.588 147.073 137.368 147.028 137.324 146.41C137.147 143.938 136.043 137.317 128.76 135.111C118.343 131.932 111.678 139.171 109.957 141.82C109.207 135.905 104.175 131.271 98.0394 131.271C91.3744 131.271 85.9453 136.656 85.9453 143.32C85.9453 149.985 91.3303 155.414 98.0394 155.414C101.262 155.414 104.219 154.135 106.382 152.06C106.47 152.104 106.47 152.237 106.426 152.457C105.896 155.458 104.969 166.317 116.358 170.731C120.904 172.496 124.788 171.173 128.011 168.921C128.981 168.259 129.113 168.524 128.981 169.451C128.583 172.231 129.113 178.234 137.456 181.589C143.812 184.193 147.608 181.545 150.08 179.25C151.14 178.278 151.449 178.411 151.493 179.956C151.801 188.034 158.51 194.434 166.632 194.478C175.018 194.478 181.815 187.681 181.86 179.294C181.904 170.82 175.106 164.11 166.72 164.022Z" fill="white"/>
    <path d="M180 0.767578C80.5982 0.767578 0 53.6465 0 118.487C0 120.165 0 124.799 0 125.373C0 194.186 70.4461 249.889 180 249.889C290.216 249.889 360 194.186 360 125.373C360 122.989 360 121.577 360 118.487C360 53.6024 279.402 0.767578 180 0.767578ZM351.878 105.422C312.771 114.117 283.595 126.741 276.267 130.007C259.186 115.089 219.725 80.7922 209.044 72.7588C202.952 68.1683 198.759 65.7407 195.095 64.6372C193.463 64.1517 191.167 63.5778 188.254 63.5778C185.517 63.5778 182.605 64.0634 179.559 65.0344C172.629 67.2413 165.743 72.6705 159.123 77.9672L158.769 78.232C152.59 83.1757 146.145 88.2517 141.29 89.3551C139.171 89.8408 137.008 90.0614 134.846 90.0614C129.417 90.0614 124.517 88.4724 122.707 86.133C122.398 85.7358 122.619 85.1178 123.325 84.235L123.414 84.1026L138.421 67.9035C150.206 56.1183 161.285 45.0393 186.886 44.4214C187.327 44.4214 187.725 44.4214 188.166 44.4214C204.1 44.4214 219.99 51.5719 221.8 52.3664C236.719 59.6494 252.124 63.3571 267.617 63.3571C283.727 63.3571 300.368 59.3846 317.803 51.3513C336.077 66.8 348.171 85.2943 351.878 105.422ZM180 7.69744C232.747 7.69744 279.976 22.8372 311.711 46.6283C296.351 53.2493 281.742 56.6038 267.617 56.6038C253.183 56.6038 238.75 53.1168 224.713 46.2753C223.962 45.9221 206.395 37.6239 188.122 37.6239C187.637 37.6239 187.151 37.6239 186.665 37.6239C165.17 38.1095 153.075 45.7455 144.953 52.4547C137.052 52.6313 130.211 54.5734 124.12 56.2507C118.691 57.7515 114.011 59.0756 109.465 59.0756C107.567 59.0756 104.213 58.8991 103.904 58.8991C98.6513 58.7225 72.3443 52.2781 51.3341 44.3331C83.0261 21.8662 128.931 7.69744 180 7.69744ZM45.1102 49.056C67.0474 58.0162 93.7076 64.9903 102.138 65.5199C104.478 65.6965 106.994 65.9614 109.509 65.9614C115.115 65.9614 120.677 64.4164 126.062 62.8716C129.24 61.9888 132.771 61.0177 136.478 60.3115C135.508 61.2826 134.493 62.2536 133.521 63.2688L118.249 79.777C117.058 80.9687 114.453 84.235 116.175 88.2075C116.837 89.7966 118.25 91.3415 120.191 92.6657C123.811 95.0932 130.344 96.7706 136.391 96.7706C138.685 96.7706 140.849 96.5499 142.834 96.1085C149.235 94.696 155.944 89.311 163.051 83.6612C168.701 79.159 176.778 73.4651 182.914 71.7878C184.635 71.3022 186.753 71.0374 188.475 71.0374C189.004 71.0374 189.445 71.0374 189.887 71.1257C193.948 71.6553 197.877 73.0236 204.939 78.2762C217.475 87.6779 272.913 136.187 273.443 136.673C273.487 136.717 277.018 139.762 276.753 144.839C276.621 147.663 275.032 150.179 272.339 151.9C269.955 153.401 267.528 154.152 265.056 154.152C261.349 154.152 258.788 152.43 258.612 152.298C258.392 152.121 239.412 134.73 232.438 128.86C231.334 127.932 230.23 127.095 229.172 127.095C228.598 127.095 228.068 127.36 227.715 127.757C226.611 129.124 227.847 130.979 229.304 132.215L251.506 154.505C251.55 154.549 254.286 157.11 254.595 160.508C254.772 164.215 253.006 167.306 249.343 169.688C246.739 171.41 244.09 172.293 241.486 172.293C238.087 172.293 235.703 170.748 235.175 170.351L231.996 167.217C226.17 161.479 220.167 155.564 215.753 151.9C214.694 151.017 213.546 150.179 212.442 150.179C211.913 150.179 211.428 150.356 211.03 150.798C210.545 151.37 210.191 152.342 211.428 154.019C211.912 154.681 212.53 155.255 212.53 155.255L228.73 173.441C228.863 173.618 232.084 177.413 229.083 181.209L228.509 181.915C228.024 182.445 227.494 182.931 227.009 183.372C224.227 185.623 220.564 185.887 219.107 185.887C218.312 185.887 217.563 185.844 216.901 185.712C215.311 185.447 214.208 184.961 213.722 184.387L213.502 184.167C212.619 183.24 204.453 174.941 197.7 169.291C196.817 168.542 195.713 167.615 194.565 167.615C193.993 167.615 193.507 167.835 193.11 168.277C191.785 169.733 193.772 171.94 194.654 172.735L208.47 187.962C208.47 188.095 208.293 188.404 207.94 188.889C207.454 189.552 205.778 191.229 200.745 191.89C200.128 191.979 199.51 192.023 198.892 192.023C193.728 192.023 188.21 189.507 185.385 188.006C186.665 185.27 187.371 182.268 187.371 179.267C187.371 167.879 178.146 158.654 166.802 158.654C166.581 158.654 166.317 158.654 166.052 158.654C166.405 153.445 165.7 143.647 155.591 139.321C152.678 138.085 149.809 137.423 146.984 137.423C144.777 137.423 142.658 137.82 140.672 138.571C138.597 134.509 135.111 131.553 130.609 130.007C128.092 129.124 125.62 128.727 123.193 128.727C119 128.727 115.115 129.963 111.673 132.435C108.362 128.33 103.374 125.903 98.1216 125.903C93.5311 125.903 89.1173 127.757 85.8068 130.979C81.5254 127.713 64.4432 116.854 18.8032 106.481C16.6403 105.996 11.6969 104.583 8.56304 103.656C12.8004 83.1315 25.8213 64.4164 45.1102 49.056ZM129.77 167.879L129.284 167.438H128.799C128.401 167.438 127.96 167.615 127.386 168.012C125.046 169.644 122.84 170.439 120.544 170.439C119.308 170.439 118.029 170.174 116.748 169.688C106.155 165.584 106.994 155.564 107.524 152.562C107.611 151.944 107.434 151.459 107.082 151.151L106.331 150.533L105.625 151.194C103.551 153.181 100.858 154.284 98.0332 154.284C91.9862 154.284 87.0426 149.341 87.0426 143.294C87.0426 137.246 91.9862 132.303 98.0332 132.303C103.507 132.303 108.185 136.408 108.847 141.881L109.245 144.839L110.878 142.322C111.055 142.013 115.512 135.304 123.678 135.304C125.223 135.304 126.812 135.569 128.445 136.054C134.934 138.041 136.038 143.956 136.214 146.383C136.347 147.796 137.361 147.884 137.538 147.884C138.112 147.884 138.509 147.531 138.818 147.222C140.054 145.941 142.702 143.823 146.896 143.823C148.793 143.823 150.868 144.265 152.943 145.192C163.271 149.65 158.593 162.758 158.549 162.891C157.666 165.054 157.621 166.025 158.46 166.599L158.858 166.776H159.167C159.608 166.776 160.225 166.599 161.152 166.246C162.565 165.76 164.684 165.01 166.67 165.01C174.438 165.098 180.795 171.454 180.795 179.135C180.795 186.903 174.438 193.215 166.67 193.215C159.078 193.215 152.855 187.3 152.59 179.753C152.59 179.091 152.501 177.369 151.045 177.369C150.471 177.369 149.941 177.722 149.323 178.252C147.646 179.797 145.527 181.385 142.393 181.385C140.981 181.385 139.436 181.076 137.847 180.414C129.814 177.148 129.726 171.631 130.035 169.424C130.167 168.982 130.211 168.365 129.77 167.879ZM180 229.144C84.3943 229.144 6.92991 179.576 6.92991 118.399C6.92991 115.927 7.10631 113.499 7.32701 111.071C8.07737 111.248 15.6693 113.058 17.2583 113.411C63.8695 123.784 79.2741 134.553 81.8784 136.584C80.9956 138.703 80.5542 140.998 80.5542 143.294C80.5542 152.916 88.3668 160.773 98.0332 160.773C99.0926 160.773 100.196 160.684 101.256 160.464C102.712 167.57 107.347 172.911 114.453 175.691C116.528 176.486 118.603 176.883 120.677 176.883C122.001 176.883 123.325 176.707 124.65 176.398C125.973 179.709 128.887 183.858 135.508 186.55C137.802 187.477 140.142 187.962 142.35 187.962C144.159 187.962 145.969 187.653 147.69 186.991C150.824 194.672 158.372 199.792 166.714 199.792C172.275 199.792 177.572 197.541 181.457 193.524C184.767 195.378 191.785 198.732 198.892 198.732C199.819 198.732 200.657 198.688 201.54 198.556C208.558 197.674 211.869 194.892 213.369 192.773C213.634 192.42 213.899 192.023 214.119 191.582C215.797 192.067 217.607 192.464 219.725 192.464C223.566 192.464 227.273 191.141 230.981 188.448C234.645 185.8 237.249 182.003 237.646 178.782C237.646 178.738 237.646 178.693 237.646 178.649C238.882 178.914 240.162 179.047 241.397 179.047C245.371 179.047 249.255 177.81 252.962 175.382C260.157 170.66 261.393 164.524 261.261 160.508C262.541 160.773 263.821 160.905 265.1 160.905C268.809 160.905 272.472 159.802 275.958 157.55C280.417 154.726 283.109 150.356 283.507 145.279C283.771 141.837 282.933 138.35 281.124 135.348C293.13 130.184 320.584 120.165 352.893 112.881C353.026 114.691 353.114 116.545 353.114 118.399C353.114 179.576 275.606 229.144 180 229.144Z" fill="#2D3277"/>
</svg>
